<svg viewBox="0 0 64 64" xmlns="http://www.w3.org/2000/svg"><g id="Layer_83" data-name="Layer 83"><path d="m61.59 30.79c-.53-.71-13.32-17.29-29.59-17.29s-29.06 16.58-29.59 17.29a2 2 0 0 0 0 2.42c.53.71 13.32 17.29 29.59 17.29s29.06-16.58 29.59-17.29a2 2 0 0 0 0-2.42zm-29.59 15.71c-11.9 0-22.24-10.82-25.41-14.5 3.17-3.69 13.48-14.5 25.41-14.5s22.24 10.82 25.41 14.5c-3.17 3.69-13.48 14.5-25.41 14.5z" fill="#000000" style="fill: rgba(206, 191, 165, 0.9);"></path><path d="m32 23.15a8.85 8.85 0 1 0 8.85 8.85 8.86 8.86 0 0 0 -8.85-8.85zm0 13.7a4.85 4.85 0 1 1 4.85-4.85 4.86 4.86 0 0 1 -4.85 4.85z" fill="#000000" style="fill: rgba(206, 191, 165, 0.9);"></path></g></svg>